<mxfile host="app.diagrams.net" modified="2024-03-06T20:24:04.415Z" agent="Mozilla/5.0 (Windows NT 10.0; Win64; x64) AppleWebKit/537.36 (KHTML, like Gecko) Chrome/122.0.0.0 Safari/537.36" etag="YGWW4MQ0ZgQBSKeDrpA7" version="23.1.4" type="github">
  <diagram name="Страница — 1" id="EFDnBTpv4hUxlKeFCTt5">
    <mxGraphModel dx="1313" dy="706" grid="1" gridSize="10" guides="1" tooltips="1" connect="1" arrows="1" fold="1" page="1" pageScale="1" pageWidth="827" pageHeight="1169" math="0" shadow="0">
      <root>
        <mxCell id="0" />
        <mxCell id="1" parent="0" />
        <mxCell id="rsG11aKWxjpGqiQh-Hpc-2" value="Subscription Service" style="rounded=1;whiteSpace=wrap;html=1;" vertex="1" parent="1">
          <mxGeometry x="380" y="270" width="120" height="60" as="geometry" />
        </mxCell>
        <mxCell id="rsG11aKWxjpGqiQh-Hpc-4" value="Payment Service" style="rounded=1;whiteSpace=wrap;html=1;" vertex="1" parent="1">
          <mxGeometry x="540" y="270" width="120" height="60" as="geometry" />
        </mxCell>
        <mxCell id="rsG11aKWxjpGqiQh-Hpc-6" value="Subscription Data" style="shape=cylinder3;whiteSpace=wrap;html=1;boundedLbl=1;backgroundOutline=1;size=15;" vertex="1" parent="1">
          <mxGeometry x="550" y="170" width="80" height="80" as="geometry" />
        </mxCell>
        <mxCell id="rsG11aKWxjpGqiQh-Hpc-18" style="edgeStyle=orthogonalEdgeStyle;rounded=0;orthogonalLoop=1;jettySize=auto;html=1;" edge="1" parent="1" source="rsG11aKWxjpGqiQh-Hpc-8" target="rsG11aKWxjpGqiQh-Hpc-17">
          <mxGeometry relative="1" as="geometry" />
        </mxCell>
        <mxCell id="rsG11aKWxjpGqiQh-Hpc-24" style="edgeStyle=orthogonalEdgeStyle;rounded=0;orthogonalLoop=1;jettySize=auto;html=1;entryX=0.5;entryY=0;entryDx=0;entryDy=0;exitX=0.5;exitY=1;exitDx=0;exitDy=0;" edge="1" parent="1" source="rsG11aKWxjpGqiQh-Hpc-2" target="rsG11aKWxjpGqiQh-Hpc-8">
          <mxGeometry relative="1" as="geometry">
            <mxPoint x="500" y="360" as="sourcePoint" />
          </mxGeometry>
        </mxCell>
        <mxCell id="rsG11aKWxjpGqiQh-Hpc-44" style="edgeStyle=orthogonalEdgeStyle;rounded=0;orthogonalLoop=1;jettySize=auto;html=1;exitX=0.5;exitY=0;exitDx=0;exitDy=0;entryX=0.5;entryY=1;entryDx=0;entryDy=0;" edge="1" parent="1" source="rsG11aKWxjpGqiQh-Hpc-14" target="rsG11aKWxjpGqiQh-Hpc-8">
          <mxGeometry relative="1" as="geometry">
            <mxPoint x="480" y="490" as="targetPoint" />
          </mxGeometry>
        </mxCell>
        <mxCell id="rsG11aKWxjpGqiQh-Hpc-8" value="User management&lt;br&gt;Service" style="rounded=1;whiteSpace=wrap;html=1;" vertex="1" parent="1">
          <mxGeometry x="380" y="390" width="120" height="60" as="geometry" />
        </mxCell>
        <mxCell id="rsG11aKWxjpGqiQh-Hpc-10" value="" style="endArrow=classic;startArrow=classic;html=1;rounded=0;entryX=0;entryY=0.5;entryDx=0;entryDy=0;" edge="1" parent="1" source="rsG11aKWxjpGqiQh-Hpc-2" target="rsG11aKWxjpGqiQh-Hpc-4">
          <mxGeometry width="50" height="50" relative="1" as="geometry">
            <mxPoint x="210" y="200" as="sourcePoint" />
            <mxPoint x="260" y="150" as="targetPoint" />
          </mxGeometry>
        </mxCell>
        <mxCell id="rsG11aKWxjpGqiQh-Hpc-46" style="edgeStyle=orthogonalEdgeStyle;rounded=0;orthogonalLoop=1;jettySize=auto;html=1;entryX=0;entryY=0.5;entryDx=0;entryDy=0;exitX=0.5;exitY=0;exitDx=0;exitDy=0;" edge="1" parent="1" source="rsG11aKWxjpGqiQh-Hpc-12" target="rsG11aKWxjpGqiQh-Hpc-2">
          <mxGeometry relative="1" as="geometry" />
        </mxCell>
        <mxCell id="rsG11aKWxjpGqiQh-Hpc-12" value="Infrastructure Service" style="rounded=1;whiteSpace=wrap;html=1;" vertex="1" parent="1">
          <mxGeometry x="200" y="320" width="120" height="60" as="geometry" />
        </mxCell>
        <mxCell id="rsG11aKWxjpGqiQh-Hpc-45" style="edgeStyle=orthogonalEdgeStyle;rounded=0;orthogonalLoop=1;jettySize=auto;html=1;exitX=0.5;exitY=0;exitDx=0;exitDy=0;entryX=0.5;entryY=1;entryDx=0;entryDy=0;" edge="1" parent="1" source="rsG11aKWxjpGqiQh-Hpc-13" target="rsG11aKWxjpGqiQh-Hpc-12">
          <mxGeometry relative="1" as="geometry" />
        </mxCell>
        <mxCell id="rsG11aKWxjpGqiQh-Hpc-47" style="edgeStyle=orthogonalEdgeStyle;rounded=0;orthogonalLoop=1;jettySize=auto;html=1;exitX=0;exitY=0.25;exitDx=0;exitDy=0;entryX=0.25;entryY=0;entryDx=0;entryDy=0;" edge="1" parent="1" source="rsG11aKWxjpGqiQh-Hpc-13" target="rsG11aKWxjpGqiQh-Hpc-2">
          <mxGeometry relative="1" as="geometry" />
        </mxCell>
        <mxCell id="rsG11aKWxjpGqiQh-Hpc-13" value="Events Service" style="rounded=1;whiteSpace=wrap;html=1;" vertex="1" parent="1">
          <mxGeometry x="200" y="480" width="120" height="60" as="geometry" />
        </mxCell>
        <mxCell id="rsG11aKWxjpGqiQh-Hpc-14" value="Communication Service" style="rounded=1;whiteSpace=wrap;html=1;" vertex="1" parent="1">
          <mxGeometry x="380" y="540" width="120" height="60" as="geometry" />
        </mxCell>
        <mxCell id="rsG11aKWxjpGqiQh-Hpc-17" value="User Data" style="shape=cylinder3;whiteSpace=wrap;html=1;boundedLbl=1;backgroundOutline=1;size=15;" vertex="1" parent="1">
          <mxGeometry x="565" y="380" width="80" height="80" as="geometry" />
        </mxCell>
        <mxCell id="rsG11aKWxjpGqiQh-Hpc-34" value="Infrastructure Data" style="shape=cylinder3;whiteSpace=wrap;html=1;boundedLbl=1;backgroundOutline=1;size=15;" vertex="1" parent="1">
          <mxGeometry x="70" y="310" width="80" height="80" as="geometry" />
        </mxCell>
        <mxCell id="rsG11aKWxjpGqiQh-Hpc-35" style="edgeStyle=orthogonalEdgeStyle;rounded=0;orthogonalLoop=1;jettySize=auto;html=1;entryX=1;entryY=0.5;entryDx=0;entryDy=0;entryPerimeter=0;" edge="1" parent="1" source="rsG11aKWxjpGqiQh-Hpc-12" target="rsG11aKWxjpGqiQh-Hpc-34">
          <mxGeometry relative="1" as="geometry" />
        </mxCell>
        <mxCell id="rsG11aKWxjpGqiQh-Hpc-36" value="Event Data" style="shape=cylinder3;whiteSpace=wrap;html=1;boundedLbl=1;backgroundOutline=1;size=15;" vertex="1" parent="1">
          <mxGeometry x="70" y="470" width="80" height="80" as="geometry" />
        </mxCell>
        <mxCell id="rsG11aKWxjpGqiQh-Hpc-37" style="edgeStyle=orthogonalEdgeStyle;rounded=0;orthogonalLoop=1;jettySize=auto;html=1;entryX=1;entryY=0.5;entryDx=0;entryDy=0;entryPerimeter=0;" edge="1" parent="1" source="rsG11aKWxjpGqiQh-Hpc-13" target="rsG11aKWxjpGqiQh-Hpc-36">
          <mxGeometry relative="1" as="geometry" />
        </mxCell>
        <mxCell id="rsG11aKWxjpGqiQh-Hpc-38" value="Chat Data" style="shape=cylinder3;whiteSpace=wrap;html=1;boundedLbl=1;backgroundOutline=1;size=15;" vertex="1" parent="1">
          <mxGeometry x="555" y="530" width="90" height="80" as="geometry" />
        </mxCell>
        <mxCell id="rsG11aKWxjpGqiQh-Hpc-39" style="edgeStyle=orthogonalEdgeStyle;rounded=0;orthogonalLoop=1;jettySize=auto;html=1;entryX=0;entryY=0.5;entryDx=0;entryDy=0;entryPerimeter=0;" edge="1" parent="1" source="rsG11aKWxjpGqiQh-Hpc-14" target="rsG11aKWxjpGqiQh-Hpc-38">
          <mxGeometry relative="1" as="geometry" />
        </mxCell>
        <mxCell id="rsG11aKWxjpGqiQh-Hpc-40" style="edgeStyle=orthogonalEdgeStyle;rounded=0;orthogonalLoop=1;jettySize=auto;html=1;entryX=0;entryY=0.5;entryDx=0;entryDy=0;entryPerimeter=0;" edge="1" parent="1" source="rsG11aKWxjpGqiQh-Hpc-2" target="rsG11aKWxjpGqiQh-Hpc-6">
          <mxGeometry relative="1" as="geometry">
            <Array as="points">
              <mxPoint x="440" y="210" />
            </Array>
          </mxGeometry>
        </mxCell>
        <mxCell id="rsG11aKWxjpGqiQh-Hpc-42" value="" style="endArrow=classic;html=1;rounded=0;entryX=0;entryY=0;entryDx=0;entryDy=0;exitX=1;exitY=0.5;exitDx=0;exitDy=0;" edge="1" parent="1" source="rsG11aKWxjpGqiQh-Hpc-12" target="rsG11aKWxjpGqiQh-Hpc-8">
          <mxGeometry width="50" height="50" relative="1" as="geometry">
            <mxPoint x="380" y="390" as="sourcePoint" />
            <mxPoint x="430" y="340" as="targetPoint" />
          </mxGeometry>
        </mxCell>
        <mxCell id="rsG11aKWxjpGqiQh-Hpc-43" value="" style="endArrow=classic;html=1;rounded=0;exitX=1;exitY=0;exitDx=0;exitDy=0;entryX=0;entryY=1;entryDx=0;entryDy=0;" edge="1" parent="1" source="rsG11aKWxjpGqiQh-Hpc-13" target="rsG11aKWxjpGqiQh-Hpc-8">
          <mxGeometry width="50" height="50" relative="1" as="geometry">
            <mxPoint x="390" y="510" as="sourcePoint" />
            <mxPoint x="440" y="460" as="targetPoint" />
          </mxGeometry>
        </mxCell>
      </root>
    </mxGraphModel>
  </diagram>
</mxfile>
